<mxfile host="app.diagrams.net" modified="2023-06-27T06:00:33.578Z" agent="Mozilla/5.0 (Windows NT 10.0; Win64; x64) AppleWebKit/537.36 (KHTML, like Gecko) Chrome/114.0.0.0 Safari/537.36" version="21.5.0" etag="OBJU-tTCnk3cntRtghnT" type="github">
  <diagram name="第 1 页" id="lpDE6KFwoA6HFhISR9sZ">
    <mxGraphModel>
      <root>
        <mxCell id="0" />
        <mxCell id="1" parent="0" />
      </root>
    </mxGraphModel>
  </diagram>
</mxfile>
